<svg width="68" height="68" viewBox="0 0 68 68" fill="none" xmlns="http://www.w3.org/2000/svg">
<path d="M35.1351 37.7091H26.2745C24.8321 37.7091 23.5957 38.8424 23.5957 40.3879V49.2485C23.5957 50.6909 24.8321 51.9273 26.2745 51.9273H35.1351C36.5775 51.9273 37.8139 50.6909 37.8139 49.2485V40.3879C37.7109 38.9455 36.5775 37.7091 35.1351 37.7091ZM35.6502 49.3515C35.6502 49.6606 35.4442 49.9697 35.0321 49.9697H26.1715C25.8624 49.9697 25.5533 49.7637 25.5533 49.3515V40.4909C25.5533 40.1818 25.7593 39.8727 26.1715 39.8727H35.0321C35.3412 39.8727 35.6502 40.0788 35.6502 40.4909V49.3515Z" fill="#006BA3"/>
<path d="M60.6858 40.6969C60.6858 40.5939 60.6858 40.5939 60.6858 40.4909V9.58178C60.6858 7.10906 58.6252 5.04845 56.1525 5.04845H54.0919V4.43027C54.0919 2.67875 52.6494 1.23633 50.8979 1.23633C49.1464 1.23633 47.704 2.67875 47.704 4.43027V5.04845H43.8919V4.43027C43.8919 2.67875 42.4494 1.23633 40.6979 1.23633C38.9464 1.23633 37.504 2.67875 37.504 4.43027V5.04845H33.6919V4.43027C33.6919 2.67875 32.2494 1.23633 30.4979 1.23633C28.7464 1.23633 27.304 2.67875 27.304 4.43027V5.04845H23.6979V4.43027C23.6979 2.67875 22.2555 1.23633 20.504 1.23633C18.7525 1.23633 17.31 2.67875 17.31 4.43027V5.04845H13.4979V4.43027C13.4979 2.67875 12.0555 1.23633 10.304 1.23633C8.6555 1.33936 7.21308 2.67875 7.21308 4.43027V5.04845H5.15247C2.67975 5.04845 0.619141 7.10906 0.619141 9.58178V53.5757C0.619141 56.1515 2.67975 58.2121 5.2555 58.2121H40.3888H40.4919C41.5222 60.5818 43.1707 62.6424 45.3343 64.1878C45.4373 64.2909 45.4373 64.3939 45.5404 64.3939C48.0131 65.9394 50.6919 66.7636 53.3707 66.7636C53.7828 66.7636 54.2979 66.7636 54.71 66.6606H55.1222C55.3282 66.6606 55.6373 66.5575 55.8434 66.5575C56.6676 66.4545 57.3888 66.2484 58.1101 65.9394C58.3161 65.8363 58.4191 65.8363 58.6252 65.7333C58.7282 65.6303 58.9343 65.6303 59.0373 65.5272C59.7585 65.2181 60.5828 64.806 61.304 64.3939C61.407 64.2909 61.5101 64.1878 61.5101 64.1878C65.1161 61.6121 67.3828 57.4909 67.3828 52.7515C67.3828 47.6 64.704 43.1697 60.6858 40.6969ZM49.8676 4.43027C49.8676 3.81209 50.3828 3.29693 51.001 3.29693C51.6191 3.29693 52.1343 3.81209 52.1343 4.43027V5.04845H49.8676V4.43027ZM39.6676 4.43027C39.6676 3.81209 40.1828 3.29693 40.801 3.29693C41.4191 3.29693 41.9343 3.81209 41.9343 4.43027V5.04845H39.7707L39.6676 4.43027ZM29.5707 4.43027C29.5707 3.81209 30.0858 3.29693 30.704 3.29693C31.3222 3.29693 31.8373 3.81209 31.8373 4.43027V5.04845H29.5707V4.43027ZM19.3707 4.43027C19.3707 3.81209 19.8858 3.29693 20.504 3.29693C21.1222 3.29693 21.6373 3.81209 21.6373 4.43027V5.04845H19.3707V4.43027ZM9.27369 4.43027C9.27369 3.81209 9.78884 3.29693 10.407 3.29693C11.0252 3.29693 11.5404 3.81209 11.5404 4.43027V5.04845H9.27369V4.43027ZM2.67975 9.58178C2.67975 8.24239 3.81308 7.10906 5.15247 7.10906H11.5404V9.78784C11.5404 10.406 11.0252 10.9212 10.407 10.9212C9.78884 10.8181 9.27369 10.303 9.27369 9.68481V9.27269C9.27369 8.65451 8.75853 8.24239 8.24338 8.24239C7.72823 8.24239 7.21308 8.75754 7.21308 9.27269V9.68481C7.21308 11.4363 8.6555 12.8788 10.407 12.8788C12.1585 12.8788 13.601 11.4363 13.601 9.68481V7.10906H21.6373V9.78784C21.6373 10.406 21.1222 10.9212 20.504 10.9212C19.8858 10.9212 19.3707 10.406 19.3707 9.78784V9.27269C19.3707 8.65451 18.9585 8.24239 18.3404 8.24239C17.8252 8.24239 17.31 8.65451 17.31 9.27269V9.68481C17.31 11.4363 18.7525 12.8788 20.504 12.8788C22.2555 12.8788 23.6979 11.4363 23.6979 9.68481V7.10906H31.7343V9.78784C31.7343 10.406 31.2191 10.9212 30.601 10.9212C29.9828 10.9212 29.4676 10.406 29.4676 9.78784V9.27269C29.4676 8.65451 29.0555 8.24239 28.4373 8.24239C27.9222 8.24239 27.407 8.65451 27.407 9.27269V9.68481C27.407 11.4363 28.8494 12.8788 30.601 12.8788C32.3525 12.8788 33.7949 11.4363 33.7949 9.68481V7.10906H41.8313V9.78784C41.8313 10.406 41.3161 10.9212 40.6979 10.9212C40.0797 10.9212 39.5646 10.406 39.5646 9.78784V9.27269C39.5646 8.65451 39.0494 8.24239 38.5343 8.24239C37.9161 8.24239 37.504 8.65451 37.504 9.27269V9.68481C37.504 11.4363 38.9464 12.8788 40.6979 12.8788C42.4494 12.8788 43.8919 11.4363 43.8919 9.68481V7.10906H51.9282V9.78784C51.9282 10.406 51.4131 10.9212 50.7949 10.9212C50.1767 10.9212 49.6616 10.406 49.6616 9.78784V9.27269C49.6616 8.65451 49.2494 8.24239 48.6313 8.24239C48.1161 8.24239 47.601 8.65451 47.601 9.27269V9.68481C47.601 11.4363 49.0434 12.8788 50.7949 12.8788C52.5464 12.8788 53.9888 11.4363 53.9888 9.68481V7.10906H56.0494C57.3888 7.10906 58.5222 8.24239 58.5222 9.58178V15.1454H2.67975V9.58178ZM39.2555 52.6484C39.2555 53.8848 39.4616 55.0181 39.6676 56.0485H5.2555C3.81308 56.0485 2.67975 54.9151 2.67975 53.4727V17.206H58.7282V39.5636C57.0797 38.9454 55.3282 38.5333 53.3707 38.5333C45.6434 38.6363 39.2555 44.9212 39.2555 52.6484ZM61.8191 61.0969V60.7878C61.8191 58.1091 60.3767 54.9151 53.3707 54.9151C46.3646 54.9151 44.9222 58.1091 44.9222 60.7878V61.2C42.7585 59.0363 41.4191 56.0484 41.4191 52.7515C41.4191 46.1575 46.7767 40.8 53.3707 40.8C59.9646 40.8 65.3222 46.1575 65.3222 52.7515C65.3222 55.9454 63.9828 58.9333 61.8191 61.0969Z" fill="#006BA3"/>
<path d="M58.5218 47.806C58.5218 50.6908 56.1521 52.9575 53.3703 52.9575C50.4854 52.9575 48.2188 50.5878 48.2188 47.806C48.2188 44.9211 50.5884 42.6545 53.3703 42.6545C56.2551 42.5515 58.5218 44.9211 58.5218 47.806Z" fill="#006BA3"/>
<path d="M17.0018 21.4303H8.03816C6.59574 21.4303 5.35938 22.5636 5.35938 24.1091V32.9697C5.35938 34.4121 6.49271 35.6485 8.03816 35.6485H16.8988C18.3412 35.6485 19.5776 34.4121 19.5776 32.9697V24.1091C19.6806 22.5636 18.4442 21.4303 17.0018 21.4303ZM17.62 32.9697C17.62 33.2788 17.4139 33.5879 17.0018 33.5879H8.03816C7.72907 33.5879 7.41998 33.3818 7.41998 32.9697V24.1091C7.41998 23.8 7.62604 23.4909 8.03816 23.4909H16.8988C17.2079 23.4909 17.517 23.697 17.517 24.1091L17.62 32.9697Z" fill="#006BA3"/>
<path d="M35.1351 21.4303H26.2745C24.8321 21.4303 23.5957 22.5636 23.5957 24.1091V32.9697C23.5957 34.4121 24.8321 35.6485 26.2745 35.6485H35.1351C36.5775 35.6485 37.8139 34.4121 37.8139 32.9697V24.1091C37.7109 22.5636 36.5775 21.4303 35.1351 21.4303ZM33.6927 27.6121L30.3957 30.9091C30.1896 31.1151 29.9836 31.2182 29.6745 31.2182C29.4684 31.2182 29.1593 31.1151 28.9533 30.9091L27.7169 29.6727C27.3048 29.2606 27.3048 28.6424 27.7169 28.2303C28.129 27.8182 28.7472 27.8182 29.1593 28.2303L29.6745 28.7454L32.2502 26.1697C32.6624 25.7576 33.2806 25.7576 33.6927 26.1697C34.1048 26.4788 34.1048 27.2 33.6927 27.6121Z" fill="#006BA3"/>
<path d="M53.2674 21.4303H44.3038C42.8614 21.4303 41.625 22.5636 41.625 24.1091V32.9697C41.625 34.4121 42.7583 35.6485 44.3038 35.6485H53.1644C54.6068 35.6485 55.8432 34.4121 55.8432 32.9697V24.1091C55.8432 22.5636 54.7098 21.4303 53.2674 21.4303ZM53.7826 32.9697C53.7826 33.2788 53.5765 33.5879 53.1644 33.5879H44.3038C43.9947 33.5879 43.6856 33.3818 43.6856 32.9697V24.1091C43.6856 23.8 43.8917 23.4909 44.3038 23.4909H53.1644C53.4735 23.4909 53.7826 23.697 53.7826 24.1091V32.9697Z" fill="#006BA3"/>
<path d="M45.9517 31.3212C46.1577 31.5273 46.4668 31.6303 46.6729 31.6303C46.982 31.6303 47.188 31.5273 47.3941 31.3212L48.8365 29.8788L50.2789 31.3212C50.485 31.5273 50.7941 31.6303 51.0002 31.6303C51.3092 31.6303 51.5153 31.5273 51.7214 31.3212C52.1335 30.9091 52.1335 30.2909 51.7214 29.8788L50.2789 28.4364L51.7214 26.9939C52.1335 26.5818 52.1335 25.9636 51.7214 25.5515C51.3092 25.1394 50.6911 25.1394 50.2789 25.5515L48.8365 26.9939L47.3941 25.6546C46.982 25.2424 46.3638 25.2424 45.9517 25.6546C45.5395 26.0667 45.5395 26.6849 45.9517 27.097L47.3941 28.5394L45.9517 29.8788C45.5395 30.2909 45.5395 30.9091 45.9517 31.3212Z" fill="#006BA3"/>
<path d="M33.485 42.0364C33.0729 41.6243 32.4547 41.6243 32.0426 42.0364L30.6002 43.4788L29.1578 42.0364C28.7456 41.6243 28.1275 41.6243 27.7153 42.0364C27.3032 42.4485 27.3032 43.0667 27.7153 43.4788L29.1578 44.9212L27.8184 46.2606C27.4063 46.6728 27.4063 47.2909 27.8184 47.7031C28.0244 47.9091 28.3335 48.0121 28.5396 48.0121C28.8487 48.0121 29.0547 47.9091 29.2608 47.7031L30.7032 46.2606L32.1456 47.7031C32.3517 47.9091 32.6608 48.0121 32.8669 48.0121C33.1759 48.0121 33.382 47.9091 33.5881 47.7031C34.0002 47.2909 34.0002 46.6728 33.5881 46.2606L32.1456 44.8182L33.5881 43.3758C33.8972 43.0667 33.8972 42.4485 33.485 42.0364Z" fill="#006BA3"/>
<path d="M15.3522 25.6545C14.9401 25.2424 14.3219 25.2424 13.9098 25.6545L12.4674 27.097L11.025 25.6545C10.6128 25.2424 9.99465 25.2424 9.58253 25.6545C9.17041 26.0667 9.17041 26.6849 9.58253 27.097L11.025 28.5394L9.68556 29.8788C9.27344 30.2909 9.27344 30.9091 9.68556 31.3212C9.89162 31.5273 10.2007 31.6303 10.4068 31.6303C10.6128 31.6303 10.9219 31.5273 11.128 31.3212L12.5704 29.8788L14.0128 31.3212C14.2189 31.5273 14.528 31.6303 14.734 31.6303C15.0431 31.6303 15.2492 31.5273 15.4553 31.3212C15.8674 30.9091 15.8674 30.2909 15.4553 29.8788L14.0128 28.4364L15.4553 26.9939C15.7643 26.6849 15.7643 26.0667 15.3522 25.6545Z" fill="#006BA3"/>
<path d="M17.0018 37.7091H8.03816C6.59574 37.7091 5.35938 38.8424 5.35938 40.3879V49.2485C5.35938 50.6909 6.49271 51.9273 8.03816 51.9273H16.8988C18.3412 51.9273 19.5776 50.6909 19.5776 49.2485V40.3879C19.6806 38.9455 18.4442 37.7091 17.0018 37.7091ZM15.5594 43.8909L12.2624 47.1879C12.0563 47.394 11.8503 47.497 11.5412 47.497C11.2321 47.497 11.026 47.394 10.82 47.1879L9.58362 45.9515C9.1715 45.5394 9.1715 44.9212 9.58362 44.5091C9.99574 44.097 10.6139 44.097 11.026 44.5091L11.5412 45.0243L14.117 42.4485C14.5291 42.0364 15.1473 42.0364 15.5594 42.4485C15.9715 42.8606 15.9715 43.4788 15.5594 43.8909Z" fill="#006BA3"/>
</svg>
