<svg width="78" height="78" viewBox="0 0 78 78" fill="none" xmlns="http://www.w3.org/2000/svg">
<path d="M39 1.21875C18.1289 1.21875 1.21875 18.1289 1.21875 39C1.21875 59.8711 18.1289 76.7812 39 76.7812C59.8711 76.7812 76.7812 59.8711 76.7812 39C76.7812 18.1289 59.8711 1.21875 39 1.21875ZM53.0903 48.9023L50.0434 52.7109C49.8434 52.9609 49.5962 53.1691 49.3158 53.3235C49.0354 53.478 48.7273 53.5756 48.4092 53.611C48.091 53.6464 47.769 53.6187 47.4615 53.5296C47.1541 53.4405 46.8672 53.2918 46.6172 53.0918L36.4102 45.5173C35.697 44.9463 35.1213 44.2222 34.7258 43.3987C34.3302 42.5751 34.1249 41.6732 34.125 40.7596V17.0625C34.125 16.416 34.3818 15.796 34.8389 15.3389C35.296 14.8818 35.916 14.625 36.5625 14.625H41.4375C42.084 14.625 42.704 14.8818 43.1611 15.3389C43.6182 15.796 43.875 16.416 43.875 17.0625V39L52.7109 45.4746C52.961 45.6747 53.1692 45.9221 53.3237 46.2027C53.4781 46.4833 53.5757 46.7915 53.611 47.1099C53.6462 47.4282 53.6183 47.7504 53.529 48.0579C53.4396 48.3655 53.2906 48.6524 53.0903 48.9023Z" fill="#006BA3"/>
</svg>
