<svg width="78" height="78" viewBox="0 0 78 78" fill="none" xmlns="http://www.w3.org/2000/svg">
<path d="M0 62.4C0 64.5535 1.74647 66.3 3.9 66.3H74.1C76.2535 66.3 78 64.5535 78 62.4V23.4H0V62.4ZM54.6 37.05C54.6 35.9726 55.4726 35.1 56.55 35.1H68.25C69.3274 35.1 70.2 35.9726 70.2 37.05V40.95C70.2 42.0273 69.3274 42.9 68.25 42.9H56.55C55.4726 42.9 54.6 42.0273 54.6 40.95V37.05ZM54.6 51.675C54.6 51.1363 55.0363 50.7 55.575 50.7H69.225C69.7637 50.7 70.2 51.1363 70.2 51.675V53.625C70.2 54.1636 69.7637 54.6 69.225 54.6H55.575C55.0363 54.6 54.6 54.1636 54.6 53.625V51.675ZM7.8 39.975C7.8 39.4363 8.23631 39 8.775 39H45.825C46.3637 39 46.8 39.4363 46.8 39.975V41.925C46.8 42.4636 46.3637 42.9 45.825 42.9H8.775C8.23631 42.9 7.8 42.4636 7.8 41.925V39.975ZM7.8 51.675C7.8 51.1363 8.23631 50.7 8.775 50.7H30.225C30.7637 50.7 31.2 51.1363 31.2 51.675V53.625C31.2 54.1636 30.7637 54.6 30.225 54.6H8.775C8.23631 54.6 7.8 54.1636 7.8 53.625V51.675ZM76.05 11.7H1.95C0.872625 11.7 0 12.5726 0 13.65V19.5H78V13.65C78 12.5726 77.1274 11.7 76.05 11.7Z" fill="#006BA3"/>
</svg>
