<svg width="78" height="78" viewBox="0 0 78 78" fill="none" xmlns="http://www.w3.org/2000/svg">
<path d="M60.45 35.1001C50.7488 35.1001 42.9 42.9488 42.9 52.6501C42.9 62.3513 50.7488 70.2001 60.45 70.2001C70.1513 70.2001 78 62.3513 78 52.6501C78 42.9488 70.1513 35.1001 60.45 35.1001ZM68.25 53.4179C68.25 54.0638 67.7138 54.6001 67.0678 54.6001H59.6822C59.0363 54.6001 58.5 54.0638 58.5 53.4179V44.0822C58.5 43.4363 59.0363 42.9001 59.6822 42.9001H61.2178C61.8638 42.9001 62.4 43.4363 62.4 44.0822V50.7001H67.0678C67.7138 50.7001 68.25 51.2363 68.25 51.8822V53.4179ZM39 52.6501C39 49.2619 39.8166 46.0566 41.2181 43.2047C40.2431 43.0219 39.2438 42.9001 38.22 42.9001H36.1847C33.4791 44.1432 30.4688 44.8501 27.3 44.8501C24.1313 44.8501 21.1331 44.1432 18.4153 42.9001H16.38C7.33687 42.9001 0 50.2369 0 59.2801V64.3501C0 67.5797 2.62031 70.2001 5.85 70.2001H48.1528C42.6319 66.3122 39 59.9016 39 52.6501ZM27.3 39.0001C35.9166 39.0001 42.9 32.0166 42.9 23.4001C42.9 14.7835 35.9166 7.80005 27.3 7.80005C18.6834 7.80005 11.7 14.7835 11.7 23.4001C11.7 32.0166 18.6834 39.0001 27.3 39.0001Z" fill="#006BA3"/>
</svg>
