<svg width="78" height="78" viewBox="0 0 78 78" fill="none" xmlns="http://www.w3.org/2000/svg">
<path d="M11.7 35.1C16.0022 35.1 19.5 31.6021 19.5 27.3C19.5 22.9978 16.0022 19.5 11.7 19.5C7.39781 19.5 3.9 22.9978 3.9 27.3C3.9 31.6021 7.39781 35.1 11.7 35.1ZM66.3 35.1C70.6022 35.1 74.1 31.6021 74.1 27.3C74.1 22.9978 70.6022 19.5 66.3 19.5C61.9978 19.5 58.5 22.9978 58.5 27.3C58.5 31.6021 61.9978 35.1 66.3 35.1ZM70.2 39H62.4C60.255 39 58.3172 39.8653 56.9034 41.2668C61.815 43.9603 65.3006 48.8231 66.0563 54.6H74.1C76.2572 54.6 78 52.8571 78 50.7V46.8C78 42.4978 74.5022 39 70.2 39ZM39 39C46.5441 39 52.65 32.894 52.65 25.35C52.65 17.8059 46.5441 11.7 39 11.7C31.4559 11.7 25.35 17.8059 25.35 25.35C25.35 32.894 31.4559 39 39 39ZM48.36 42.9H47.3484C44.8134 44.1187 41.9981 44.85 39 44.85C36.0019 44.85 33.1987 44.1187 30.6516 42.9H29.64C21.8888 42.9 15.6 49.1887 15.6 56.94V60.45C15.6 63.6796 18.2203 66.3 21.45 66.3H56.55C59.7797 66.3 62.4 63.6796 62.4 60.45V56.94C62.4 49.1887 56.1112 42.9 48.36 42.9ZM21.0966 41.2668C19.6828 39.8653 17.745 39 15.6 39H7.8C3.49781 39 0 42.4978 0 46.8V50.7C0 52.8571 1.74281 54.6 3.9 54.6H11.9316C12.6994 48.8231 16.185 43.9603 21.0966 41.2668Z" fill="#006BA3"/>
</svg>
