<svg width="60" height="60" viewBox="0 0 60 60" fill="none" xmlns="http://www.w3.org/2000/svg">
<path fill-rule="evenodd" clip-rule="evenodd" d="M11.4193 4.45758L33.2251 4.56506C34.9832 4.57373 36.4128 6.01752 36.4042 7.77559L36.1848 52.2875C36.1761 54.0432 34.7323 55.4752 32.9742 55.4665L11.1684 55.359C9.41272 55.3504 7.98073 53.9066 7.9894 52.1485L8.20881 7.63661C8.21746 5.8809 9.66126 4.44891 11.4193 4.45758Z" fill="#8ACCFF"/>
<path fill-rule="evenodd" clip-rule="evenodd" d="M33.2232 4.56506L11.4174 4.45758C9.65931 4.44891 8.21552 5.87854 8.20686 7.63661L8.19111 10.8314L36.3865 10.9704L36.4022 7.77559C36.4109 6.01988 34.9813 4.57373 33.2232 4.56506Z" fill="#63475A"/>
<path fill-rule="evenodd" clip-rule="evenodd" d="M21.1705 8.55354C20.7003 8.55122 20.3194 8.16889 20.3217 7.69629C20.324 7.22605 20.7063 6.84512 21.1789 6.84745L23.438 6.85859C23.9082 6.86091 24.2891 7.24324 24.2868 7.71584C24.2845 8.18607 23.9022 8.56701 23.4296 8.56468L21.1705 8.55354Z" fill="#38192E"/>
<path fill-rule="evenodd" clip-rule="evenodd" d="M32.971 55.4688L11.1652 55.3613C9.40711 55.3526 7.97749 53.9088 7.98616 52.1508L8.0019 48.956L36.1973 49.095L36.1815 52.2898C36.1729 54.0455 34.7291 55.4775 32.971 55.4688Z" fill="#63475A"/>
<path fill-rule="evenodd" clip-rule="evenodd" d="M18.8007 53.0548C18.3304 53.0525 17.9495 52.6701 17.9518 52.1975C17.9542 51.7273 18.3365 51.3464 18.8091 51.3487L25.3735 51.381C25.8438 51.3834 26.2247 51.7657 26.2224 52.2383C26.22 52.7085 25.8377 53.0895 25.3651 53.0871L18.8007 53.0548Z" fill="#38192E"/>
<path fill-rule="evenodd" clip-rule="evenodd" d="M15.6943 18.3332C15.3271 18.0431 15.2636 17.5087 15.5537 17.1415C15.8438 16.7743 16.3782 16.7108 16.7454 17.0009L22.2064 21.3191C22.5736 21.6092 22.6371 22.1436 22.347 22.5108C22.0569 22.878 21.5225 22.9415 21.1553 22.6514L15.6943 18.3332ZM21.2258 24.1854C21.5653 23.8609 22.104 23.8754 22.426 24.2149C22.7505 24.5544 22.736 25.0931 22.3965 25.4152L16.5987 30.9422C16.2591 31.2666 15.7204 31.2522 15.3984 30.9126C15.0739 30.5731 15.0884 30.0344 15.4279 29.7124L21.2258 24.1854ZM15.7152 33.7499C15.3314 33.4786 15.2418 32.9465 15.5155 32.565C15.7867 32.1812 16.3189 32.0916 16.7003 32.3653L27.4053 39.9775C27.7891 40.2487 27.8787 40.7809 27.605 41.1623C27.3338 41.5462 26.8016 41.6357 26.4202 41.3621L15.7152 33.7499Z" fill="#FFE45C"/>
<path fill-rule="evenodd" clip-rule="evenodd" d="M12.3821 16.3225C12.3763 17.5064 13.338 18.4776 14.5218 18.4834C15.7057 18.4893 16.6769 17.5276 16.6828 16.3437C16.6886 15.1598 15.7269 14.1886 14.543 14.1828C13.3592 14.1769 12.3879 15.1386 12.3821 16.3225Z" fill="#7DCD75"/>
<path fill-rule="evenodd" clip-rule="evenodd" d="M21.2161 23.3064C21.2102 24.4902 22.1719 25.4615 23.3558 25.4673C24.5397 25.4731 25.5109 24.5114 25.5167 23.3276C25.5226 22.1437 24.5609 21.1725 23.377 21.1666C22.1931 21.1608 21.2219 22.1225 21.2161 23.3064Z" fill="#7DCD75"/>
<path fill-rule="evenodd" clip-rule="evenodd" d="M12.3059 31.8003C12.3001 32.9841 13.2618 33.9554 14.4457 33.9612C15.6295 33.967 16.6008 33.0053 16.6066 31.8215C16.6124 30.6376 15.6507 29.6664 14.4669 29.6605C13.283 29.6547 12.3118 30.6164 12.3059 31.8003Z" fill="#7DCD75"/>
<path fill-rule="evenodd" clip-rule="evenodd" d="M26.3546 42.4063C26.3464 44.0699 27.6961 45.4353 29.362 45.4435C31.0255 45.4517 32.391 44.102 32.3992 42.4361C32.4074 40.7725 31.0577 39.4071 29.3918 39.3989C27.7282 39.3931 26.3628 40.7428 26.3546 42.4063Z" fill="#7DCD75"/>
<path fill-rule="evenodd" clip-rule="evenodd" d="M29.5652 30.0472C32.011 30.0732 33.9725 32.0769 33.9465 34.5228C33.9204 36.9686 31.9046 40.0724 29.4283 42.9026C27.0128 40.0203 25.0635 36.8743 25.0896 34.4285C25.1156 31.9826 27.1193 30.0211 29.5652 30.0472Z" fill="#FE5857"/>
<path fill-rule="evenodd" clip-rule="evenodd" d="M27.567 34.6175C27.5617 35.6944 28.4353 36.5766 29.5122 36.5819C30.5891 36.5872 31.4714 35.7136 31.4767 34.6367C31.482 33.5598 30.6084 32.6776 29.5315 32.6722C28.456 32.6669 27.5723 33.5406 27.567 34.6175Z" fill="#FFE45C"/>
</svg>
