<svg width="52" height="52" viewBox="0 0 52 52" fill="none" xmlns="http://www.w3.org/2000/svg">
<g clip-path="url(#clip0_1095_1132)">
<path d="M43.138 46.1135H7.41211C6.57077 46.1135 5.88867 45.4314 5.88867 44.59C5.88867 43.7487 6.57077 43.0666 7.41211 43.0666H43.138C46.3447 43.0666 48.9536 40.4576 48.9536 37.251C48.9536 34.0443 46.3447 31.4353 43.138 31.4353H14.1302C10.5971 31.4353 7.72279 28.561 7.72279 25.0281C7.72279 21.4966 10.5959 18.6235 14.1273 18.6235H42.7774C43.6187 18.6235 44.3008 19.3056 44.3008 20.147C44.3008 20.9883 43.6187 21.6704 42.7774 21.6704H14.1273C12.2759 21.6704 10.7697 23.1767 10.7697 25.0281C10.7697 26.8811 12.2772 28.3886 14.1302 28.3886H43.138C48.0248 28.3886 52.0005 32.3643 52.0005 37.2511C52.0005 42.1378 48.0248 46.1135 43.138 46.1135Z" fill="#00C8C8"/>
<path d="M7.41162 52C11.505 52 14.8232 48.6824 14.8232 44.5901C14.8232 40.4977 11.505 37.1802 7.41162 37.1802C3.3183 37.1802 0 40.4977 0 44.5901C0 48.6824 3.3183 52 7.41162 52Z" fill="#FFE14D"/>
<path d="M33.5932 49.3376C36.2152 49.3376 38.3408 47.2121 38.3408 44.5901C38.3408 41.9681 36.2152 39.8425 33.5932 39.8425C30.9712 39.8425 28.8457 41.9681 28.8457 44.5901C28.8457 47.2121 30.9712 49.3376 33.5932 49.3376Z" fill="#FFA64D"/>
<path d="M42.7779 0C37.6922 0 33.5547 4.13644 33.5547 9.22086C33.5547 12.6277 37.2138 17.2799 40.2833 20.5829C40.9256 21.2741 41.8349 21.6705 42.7779 21.6705C43.7209 21.6705 44.6301 21.2741 45.2724 20.583C48.3419 17.2798 52.001 12.6276 52.001 9.22086C52.001 4.13644 47.8634 0 42.7779 0Z" fill="#FF4D4D"/>
<path d="M27.0776 34.6596C29.6996 34.6596 31.8252 32.5341 31.8252 29.9121C31.8252 27.2901 29.6996 25.1646 27.0776 25.1646C24.4556 25.1646 22.3301 27.2901 22.3301 29.9121C22.3301 32.5341 24.4556 34.6596 27.0776 34.6596Z" fill="#FFA64D"/>
<path d="M42.7773 0V21.6705C43.7203 21.6705 44.6295 21.2741 45.2718 20.583C48.3413 17.2798 52.0004 12.6276 52.0004 9.22086C52.0004 4.13644 47.8629 0 42.7773 0Z" fill="#CC2929"/>
<path d="M42.7767 10.8352C43.5735 10.8352 44.337 10.1345 44.3001 9.31177C44.2631 8.48637 43.6307 7.78833 42.7767 7.78833C41.9798 7.78833 41.2164 8.48901 41.2532 9.31177C41.2902 10.1372 41.9226 10.8352 42.7767 10.8352Z" fill="#D7EAEB"/>
<path d="M31.8237 29.9121C31.8237 27.2943 29.6939 25.1646 27.0762 25.1646V34.6596C29.694 34.6596 31.8237 32.5299 31.8237 29.9121Z" fill="#ED8600"/>
<path d="M38.3413 44.5901C38.3413 41.9723 36.2115 39.8425 33.5938 39.8425V49.3376C36.2115 49.3376 38.3413 47.2078 38.3413 44.5901Z" fill="#ED8600"/>
<path d="M14.8237 44.5901C14.8237 40.5042 11.4989 37.1802 7.41211 37.1802V52C11.499 52 14.8237 48.6759 14.8237 44.5901Z" fill="#FFBB33"/>
</g>
<defs>
<clipPath id="clip0_1095_1132">
<rect width="52" height="52" fill="white"/>
</clipPath>
</defs>
</svg>
