<svg width="78" height="78" viewBox="0 0 78 78" fill="none" xmlns="http://www.w3.org/2000/svg">
<path fill-rule="evenodd" clip-rule="evenodd" d="M68.2505 48.75V7.3125L65.813 4.875H18.233C17.1149 4.88737 16.0083 5.10208 14.9667 5.50875C13.9168 5.97533 12.9706 6.64689 12.1837 7.48402C11.3968 8.32115 10.785 9.30701 10.3842 10.3838C9.98545 11.3426 9.77046 12.3679 9.75045 13.4062V59.7188C9.73874 60.8391 9.95433 61.9503 10.3842 62.985C11.2471 65.0666 12.8948 66.729 14.9667 67.6162C16.0083 68.0229 17.1149 68.2376 18.233 68.25H19.5005V63.375H18.233C17.7465 63.3765 17.2651 63.2769 16.8192 63.0825C15.9366 62.7164 15.2353 62.0151 14.8692 61.1325C14.7134 60.6772 14.6312 60.2 14.6255 59.7188V57.2812C14.6312 56.8 14.7134 56.3228 14.8692 55.8675C15.2353 54.9849 15.9366 54.2836 16.8192 53.9175C17.2591 53.7257 17.7336 53.6262 18.2135 53.625H63.3755V63.375H43.8755V68.25H65.813L68.2505 65.8125V48.75ZM19.5005 48.75V9.75H63.3755V48.75H19.5005ZM24.3755 14.625H29.2505V19.5H24.3755V14.625ZM24.3755 24.375H29.2505V29.25H24.3755V24.375ZM29.2505 34.125H24.3755V39H29.2505V34.125ZM31.688 65.7637L25.7405 73.125H24.3755V58.5H39.0005V73.125H37.6355L31.688 65.7637Z" fill="#006BA3"/>
</svg>
